Film on vene keeles ja eestikeelsete subtiitritega.





Euroopa Liidu idapiiril, Narva linna ja Ivangorodi eraldaval Narva jõel, on Varesesaar, saksa keeles Krähnholm. Saarele 1856. aastal rajatud ketramise ja kudumisvabrik – Kreenholmi manufaktuur – suleti lõplikult 2010. aastal. Tänases Narvas pole perekonda, keda manufaktuuri pankrot ei puudutaks. Töötu, kodutu, narkomaan, lapskerjus või varas on selles vene keelt rääkivas Eesti linnas tavakodanik. Yana, Alissa, Ženja, Dima, Ilja, Tolik, Vaike, Sonja, Ira ja Max on inimesed, kellele seesama Varesesaar on ühine kogemus, mis painab. Nagu halb unenägu. Kust leida lunastust? Hinges istub sotsialismi nostalgia ja samas raev valedele raisatud elu pärast. Kuidas ehitada inimvaredele uut? Kust leida peenraha pilvelõhkujate tarvis?


Režissöör: Sulev Keedus




-----------------------------------------------------------------------------------




General
Varesesaare.Venelased.2012.DVDRip.XviD-REK.avi
Format                                   : AVI
Format/Info                              : Audio Video Interleave
File size                                : 700 MiB
Duration                                 : 1h 12mn
Overall bit rate mode                    : Variable
Overall bit rate                         : 1 354 Kbps
Writing application                      : VirtualDubMod 1.5.4.1 (build 2178/release)
Writing library                          : VirtualDubMod build 2178/release

Video
ID                                       : 0
Format                                   : MPEG-4 Visual
Format profile                           : Advanced Simple@L5
Format settings, BVOP                    : 1
Format settings, QPel                    : No
Format settings, GMC                     : No warppoints
Format settings, Matrix                  : Custom
Codec ID                                 : XVID
Codec ID/Hint                            : XviD
Duration                                 : 1h 12mn
Bit rate                                 : 1 239 Kbps
Width                                    : 640 pixels
Height                                   : 368 pixels
Display aspect ratio                     : 1.739
Frame rate                               : 25.000 fps
Color space                              : YUV
Chroma subsampling                       : 4:2:0
Bit depth                                : 8 bits
Scan type                                : Progressive
Compression mode                         : Lossy
Bits/(Pixel*Frame)                       : 0.210
Stream size                              : 641 MiB (92%)
Writing library                          : XviD 1.2.1 (UTC 2008-12-04)

Audio
ID                                       : 1
Format                                   : MPEG Audio
Format version                           : Version 1
Format profile                           : Layer 3
Mode                                     : Joint stereo
Mode extension                           : MS Stereo
Codec ID                                 : 55
Codec ID/Hint                            : MP3
Duration                                 : 1h 12mn
Bit rate mode                            : Variable
Bit rate                                 : 102 Kbps
Nominal bit rate                         : 128 Kbps
Channel(s)                               : 2 channels
Sampling rate                            : 48.0 KHz
Compression mode                         : Lossy
Stream size                              : 52.6 MiB (8%)
Alignment                                : Aligned on interleaves
Interleave, duration                     : 24 ms (0.60 video frame)
Interleave, preload duration             : 181 ms
Writing library                          : LAME3.98r
Encoding settings                        : -m j -V 4 -q 2 -lowpass 17 --abr 128
Language                                 : Russian

